<svg width="32" height="32" viewBox="0 0 32 32" fill="none" xmlns="http://www.w3.org/2000/svg">
<path d="M14.4828 3.04186C14.8172 2.24838 15.9314 2.22051 16.3051 2.99628L19.9218 10.5037C20.0706 10.8127 20.3674 11.0238 20.7081 11.0631L28.781 11.9941C29.6393 12.0931 29.9766 13.1604 29.3312 13.7347L23.0046 19.3629C22.7357 19.6022 22.6161 19.9675 22.6915 20.3194L24.5342 28.9261C24.7112 29.7528 23.8462 30.4125 23.0958 30.0231L15.8041 26.239C15.5153 26.0892 15.1716 26.0892 14.8828 26.239L7.7216 29.9554C6.95004 30.3558 6.07024 29.649 6.29498 28.8092L8.56782 20.3169C8.6615 19.9669 8.55852 19.5936 8.29866 19.3411L2.49666 13.7041C1.8945 13.1191 2.23776 12.0972 3.07101 11.9944L10.5539 11.0709C10.9092 11.027 11.2139 10.7967 11.3529 10.4668L14.4828 3.04186Z" fill="white" stroke="#D9D9D9" stroke-opacity="0.13" stroke-width="3"/>
</svg>
