<svg width="30" height="28" viewBox="0 0 30 28" fill="none" xmlns="http://www.w3.org/2000/svg">
<path d="M20.1361 25.6029C24.0234 23.2784 26.6263 19.0285 26.6263 14.1707C26.6263 6.81815 20.6662 0.857117 13.3136 0.857117C5.9601 0.857117 0 6.81815 0 14.1707C0 21.5233 5.9601 27.4843 13.3136 27.4843H30V25.603L20.1361 25.6029ZM18.6612 7.71809C20.0409 6.92157 21.8042 7.39401 22.6007 8.77372C23.3971 10.1534 22.9247 11.9176 21.545 12.7141C20.1653 13.5097 18.402 13.0374 17.6055 11.6585C16.8081 10.2779 17.2815 8.51462 18.6612 7.71809ZM17.6047 16.6134C18.4021 15.2337 20.1654 14.7613 21.5451 15.5578C22.9248 16.3552 23.3972 18.1185 22.6007 19.4982C21.8043 20.8779 20.0409 21.3503 18.6603 20.5538C17.2815 19.7573 16.8081 17.993 17.6047 16.6134ZM13.3136 3.41145C14.9067 3.41145 16.1975 4.70233 16.1975 6.29538C16.1975 7.88842 14.9067 9.18112 13.3136 9.18112C11.7206 9.18112 10.4279 7.88837 10.4279 6.29538C10.4279 4.70239 11.7206 3.41145 13.3136 3.41145ZM14.6448 14.1707C14.6448 14.9068 14.0488 15.5019 13.3136 15.5019C12.5775 15.5019 11.9824 14.9068 11.9824 14.1707C11.9824 13.4346 12.5775 12.8395 13.3136 12.8395C14.0488 12.8395 14.6448 13.4347 14.6448 14.1707ZM4.02557 8.77372C4.82209 7.39401 6.58629 6.92163 7.966 7.71809C9.3457 8.51456 9.81809 10.2779 9.02162 11.6585C8.2251 13.0373 6.4609 13.5106 5.08119 12.7141C3.70242 11.9176 3.22904 10.1534 4.02557 8.77372ZM7.96693 20.5538C6.58629 21.3503 4.82303 20.8779 4.02557 19.4982C3.22998 18.1185 3.70236 16.3543 5.08119 15.5568C6.4609 14.7603 8.2251 15.2336 9.02162 16.6133C9.81814 17.993 9.3457 19.7573 7.96693 20.5538ZM10.4279 21.9756C10.4279 20.3825 11.7206 19.0908 13.3136 19.0908C14.9066 19.0908 16.1975 20.3826 16.1975 21.9756C16.1975 23.5686 14.9067 24.8604 13.3136 24.8604C11.7206 24.8604 10.4279 23.5686 10.4279 21.9756Z" fill="white"/>
</svg>
