<svg width="39" height="39" viewBox="0 0 39 39" fill="none" xmlns="http://www.w3.org/2000/svg">
<path d="M16.6914 24.1029V36C16.6914 36.5523 16.2436 37 15.6914 37H7.32099C6.7687 37 6.32099 36.5523 6.32099 36V19.1288C6.32099 18.2053 5.16781 17.7854 4.57404 18.4927C4.15073 18.9969 3.36218 18.9547 2.99512 18.4082L2.47678 17.6364C2.20227 17.2276 2.26613 16.6799 2.62731 16.3453L9.4574 10.0174C9.66167 9.82816 9.77778 9.56231 9.77778 9.28385V3C9.77778 2.44772 10.2255 2 10.7778 2H11.3704C11.9227 2 12.3704 2.44772 12.3704 3V6.02912C12.3704 6.87902 13.3634 7.34148 14.0139 6.79451L16.0432 5.08824L19.0526 2.55782C19.4334 2.2377 19.9915 2.24607 20.3624 2.57747L28.358 9.72059L36.3696 16.878C36.7336 17.2031 36.8096 17.7435 36.5496 18.1565L36.2981 18.5559C35.9809 19.0598 35.2963 19.1765 34.83 18.8062L34.733 18.7291C34.0777 18.2087 33.1111 18.6754 33.1111 19.5123V36C33.1111 36.5523 32.6634 37 32.1111 37H23.3086C22.7564 37 22.3086 36.5523 22.3086 36V24.1029C22.3086 23.5507 21.8609 23.1029 21.3086 23.1029H17.6914C17.1391 23.1029 16.6914 23.5507 16.6914 24.1029Z" stroke="#D9D9D9" stroke-width="3"/>
</svg>
