<svg width="36" height="36" viewBox="0 0 36 36" fill="none" xmlns="http://www.w3.org/2000/svg">
<path d="M24.3258 24.3518L33 33M28 15.5C28 22.4035 22.4035 28 15.5 28C8.59643 28 3 22.4035 3 15.5C3 8.59643 8.59643 3 15.5 3C22.4035 3 28 8.59643 28 15.5Z" stroke="#010101" stroke-width="5" stroke-linecap="round" stroke-linejoin="round"/>
<path d="M24.3258 24.3518L33 33M28 15.5C28 22.4035 22.4035 28 15.5 28C8.59643 28 3 22.4035 3 15.5C3 8.59643 8.59643 3 15.5 3C22.4035 3 28 8.59643 28 15.5Z" stroke="white" stroke-width="5" stroke-linecap="round" stroke-linejoin="round"/>
</svg>
