<svg width="29" height="30" viewBox="0 0 29 30" fill="none" xmlns="http://www.w3.org/2000/svg">
<path d="M23.4675 0H4.69349C2.10128 0 0 2.2385 0 5V25C0 27.7615 2.10128 30 4.69349 30H23.4675C26.0597 30 28.161 27.7615 28.161 25V5C28.161 2.2385 26.0597 0 23.4675 0ZM8.91764 18.5H7.71939L5.33322 13.9345V18.5H4.22414V11.5H5.38672L7.80856 16.174V11.5H8.91764V18.5ZM15.4885 18.5H10.795V11.5H15.3712V12.6835H12.0407V14.2355H15.1384V15.415H12.0407V17.319H15.4885V18.5ZM23.3116 18.5H21.9327L20.6518 13.2665L19.3743 18.5H17.9643L16.4272 11.5H17.7583L18.7289 16.3075L19.9051 11.5H21.4507L22.579 16.3895L23.5674 11.5H24.8755L23.3116 18.5Z" fill="white"/>
</svg>
