<svg width="35" height="29" viewBox="0 0 35 29" fill="none" xmlns="http://www.w3.org/2000/svg">
<path fill-rule="evenodd" clip-rule="evenodd" d="M0 2C0 0.89543 0.895431 0 2 0H33C34.1046 0 35 0.895431 35 2V17.6875C35 18.7921 34.1046 19.6875 33 19.6875H2C0.89543 19.6875 0 18.7921 0 17.6875V2ZM30.625 6.375C30.625 5.27043 29.7296 4.375 28.625 4.375H6.375C5.27043 4.375 4.375 5.27043 4.375 6.375V13.3125C4.375 14.4171 5.27043 15.3125 6.375 15.3125H28.625C29.7296 15.3125 30.625 14.4171 30.625 13.3125V6.375Z" fill="white"/>
<path d="M6.5625 26.0625C6.5625 24.9579 7.45793 24.0625 8.5625 24.0625H26.4375C27.5421 24.0625 28.4375 24.9579 28.4375 26.0625V26.4375C28.4375 27.5421 27.5421 28.4375 26.4375 28.4375H8.5625C7.45793 28.4375 6.5625 27.5421 6.5625 26.4375V26.0625Z" fill="white"/>
</svg>
