<svg width="49" height="48" viewBox="0 0 49 48" fill="none" xmlns="http://www.w3.org/2000/svg">
<path d="M47.3389 39.7672C48.1054 40.5704 48.5212 41.6297 48.4992 42.7233C48.4773 43.8169 48.0193 44.8599 47.2212 45.6336C46.4231 46.4073 45.3468 46.8517 44.2179 46.8737C43.0891 46.8957 41.9953 46.4936 41.1656 45.7516L24.5 29.6068L7.83433 45.7516C7.43488 46.1702 6.95228 46.5063 6.41547 46.7398C5.87866 46.9733 5.29871 47.0994 4.71038 47.1105C4.12205 47.1216 3.53748 47.0174 2.99171 46.8043C2.44594 46.5912 1.95022 46.2735 1.53427 45.8703C1.11833 45.4671 0.790728 44.9866 0.571119 44.4577C0.351509 43.9289 0.244414 43.3625 0.256256 42.7926C0.268098 42.2226 0.398632 41.6609 0.640032 41.141C0.881431 40.6212 1.22872 40.1539 1.66108 39.7672L18.3267 23.6223L1.66108 7.48569C1.22872 7.09901 0.881431 6.63172 0.640032 6.11185C0.398632 5.59198 0.268098 5.03023 0.256256 4.4603C0.244414 3.89037 0.351509 3.32399 0.571119 2.79513C0.790728 2.26627 1.11833 1.78582 1.53427 1.38259C1.95022 0.97937 2.44594 0.661678 2.99171 0.448568C3.53748 0.235458 4.12205 0.131321 4.71038 0.142401C5.29871 0.153482 5.87866 0.27955 6.41547 0.513049C6.95228 0.746547 7.43488 1.08267 7.83433 1.50125L24.5 17.642L41.1656 1.49714C41.9953 0.755173 43.0891 0.353064 44.2179 0.375076C45.3468 0.397088 46.4231 0.84151 47.2212 1.61521C48.0193 2.38891 48.4773 3.43184 48.4992 4.52544C48.5212 5.61903 48.1054 6.67842 47.3389 7.48158L30.6732 23.6223L47.3389 39.7672Z" fill="#111927"/>
</svg>
